<svg id="svg" xmlns="http://www.w3.org/2000/svg" xmlns:xlink="http://www.w3.org/1999/xlink" width="400" height="400" viewBox="0, 0, 400,400"><g id="svgg"><path id="path0" d="M217.933 49.596 C 212.475 50.297,209.603 54.682,210.121 61.526 C 210.245 63.162,210.164 64.964,209.942 65.546 C 209.551 66.567,208.633 72.278,208.004 77.600 C 207.268 83.828,206.773 87.439,206.584 87.959 C 206.472 88.266,206.213 89.616,206.009 90.959 C 205.806 92.301,205.344 95.110,204.985 97.200 C 204.625 99.290,204.192 101.990,204.021 103.200 C 203.851 104.410,203.341 107.290,202.888 109.600 C 202.436 111.910,201.985 114.340,201.887 115.000 C 200.945 121.343,196.869 138.847,194.204 148.000 C 193.403 150.750,192.498 153.900,192.193 155.000 C 191.888 156.100,191.164 158.620,190.585 160.600 C 190.005 162.580,189.109 165.730,188.593 167.600 C 186.781 174.161,185.704 177.811,185.240 178.964 L 184.771 180.129 183.485 178.922 C 182.778 178.259,181.046 177.016,179.635 176.161 C 176.617 174.331,175.924 173.327,175.023 169.472 C 174.654 167.892,173.902 165.070,173.352 163.200 C 172.802 161.330,172.162 159.080,171.929 158.200 C 171.697 157.320,171.348 156.150,171.154 155.600 C 170.960 155.050,170.438 153.250,169.994 151.600 C 169.551 149.950,168.909 147.610,168.568 146.400 C 167.787 143.633,166.106 136.002,165.351 131.800 C 165.035 130.040,164.600 127.700,164.384 126.600 C 164.169 125.500,163.830 123.520,163.631 122.200 C 163.432 120.880,163.090 118.900,162.870 117.800 C 162.651 116.700,162.259 114.450,162.000 112.800 C 161.741 111.150,161.352 108.900,161.137 107.800 C 160.752 105.835,160.253 102.137,159.625 96.600 C 159.139 92.313,157.223 87.600,155.966 87.600 C 155.765 87.600,155.600 87.400,155.600 87.155 C 155.600 86.574,156.674 86.789,162.800 88.595 C 169.601 90.599,169.468 90.578,170.599 89.837 C 173.205 88.130,171.706 85.439,167.413 84.117 C 164.472 83.211,164.472 82.389,167.413 81.483 C 171.706 80.161,173.205 77.470,170.599 75.763 C 169.546 75.073,169.198 75.104,165.491 76.221 C 163.396 76.852,161.981 76.770,163.056 76.078 C 163.294 75.925,163.766 75.260,164.106 74.600 C 164.446 73.940,165.191 72.964,165.762 72.430 C 167.614 70.700,166.878 67.600,164.615 67.600 C 163.485 67.600,160.843 69.692,159.563 71.600 C 159.046 72.370,157.583 74.132,156.312 75.515 C 155.040 76.898,154.000 78.196,154.000 78.399 C 154.000 78.602,153.606 79.136,153.124 79.585 C 151.888 80.736,151.613 80.079,151.606 75.954 C 151.601 73.004,151.471 72.342,150.706 71.354 C 145.741 64.943,140.924 64.961,133.800 71.416 C 132.700 72.412,130.990 73.896,130.000 74.712 C 125.642 78.307,124.520 81.167,125.791 85.445 C 126.522 87.906,128.707 90.525,130.802 91.449 L 132.384 92.147 132.367 96.271 C 132.357 98.539,132.463 100.578,132.602 100.803 C 132.853 101.210,133.378 106.017,133.958 113.229 C 134.127 115.336,134.392 117.264,134.547 117.514 C 134.835 117.981,135.353 123.158,135.994 132.000 C 136.193 134.750,136.542 137.720,136.769 138.600 C 137.024 139.590,137.185 147.712,137.190 159.915 L 137.200 179.630 135.447 181.333 C 132.267 184.424,128.481 192.114,129.405 193.607 C 130.056 194.661,135.574 194.052,135.815 192.900 C 136.470 189.766,138.852 186.362,141.528 184.736 C 142.338 184.245,143.132 183.653,143.294 183.421 C 143.744 182.776,143.661 148.095,143.195 142.200 C 142.563 134.209,142.037 128.350,141.380 122.000 C 140.432 112.839,139.063 101.835,138.336 97.537 C 137.736 93.988,137.872 93.749,140.668 93.458 C 141.951 93.324,144.080 93.041,145.400 92.829 C 146.720 92.617,148.925 92.318,150.300 92.164 L 152.800 91.884 152.800 93.512 C 152.800 94.407,152.972 96.008,153.183 97.069 C 153.394 98.131,153.850 101.070,154.197 103.600 C 154.544 106.130,154.993 109.190,155.196 110.400 C 155.398 111.610,155.850 114.310,156.200 116.400 C 157.263 122.752,157.635 124.879,158.194 127.800 C 158.488 129.340,158.940 131.770,159.199 133.200 C 159.457 134.630,159.930 136.970,160.250 138.400 C 160.571 139.830,161.034 141.900,161.280 143.000 C 161.526 144.100,162.076 146.260,162.502 147.800 C 162.927 149.340,163.424 151.230,163.606 152.000 C 163.788 152.770,164.229 154.390,164.586 155.600 C 164.943 156.810,165.590 159.060,166.024 160.600 C 166.457 162.140,167.095 164.390,167.440 165.600 C 167.786 166.810,168.214 168.340,168.392 169.000 C 168.569 169.660,169.019 171.280,169.392 172.600 C 169.765 173.920,170.240 175.698,170.448 176.552 C 171.033 178.944,171.416 179.413,173.275 180.005 C 178.063 181.528,182.400 187.255,182.400 192.054 C 182.400 192.838,182.598 194.047,182.839 194.740 L 183.278 196.000 186.239 196.000 L 189.200 196.000 189.194 194.500 C 189.190 193.675,188.927 191.920,188.608 190.600 C 187.776 187.156,187.829 186.530,188.972 186.243 C 189.751 186.047,190.069 185.543,190.577 183.699 C 192.287 177.490,194.076 171.150,194.839 168.600 C 195.275 167.139,199.029 154.029,199.648 151.800 C 199.893 150.920,200.246 149.750,200.433 149.200 C 200.847 147.983,203.799 136.673,204.140 135.000 C 204.274 134.340,204.661 132.540,205.000 131.000 C 205.538 128.552,207.214 120.242,208.388 114.200 C 208.601 113.100,209.056 110.580,209.397 108.600 C 209.739 106.620,210.193 104.010,210.406 102.800 C 210.620 101.590,211.072 98.890,211.411 96.800 C 211.750 94.710,212.190 92.010,212.388 90.800 C 213.218 85.750,214.611 76.429,215.197 72.000 C 215.995 65.978,215.499 66.335,221.648 67.357 C 223.491 67.664,227.070 68.217,229.600 68.587 C 236.784 69.636,236.216 68.711,235.011 77.400 C 234.093 84.021,232.611 95.850,232.028 101.200 C 230.849 112.038,230.336 117.229,229.142 130.400 C 228.645 135.885,228.138 189.300,228.566 191.007 C 228.691 191.505,229.421 192.161,230.291 192.557 C 237.150 195.676,240.913 204.832,238.959 213.648 C 238.676 214.925,240.164 215.600,243.260 215.600 L 245.200 215.600 245.200 209.060 C 245.200 201.208,245.026 200.508,241.706 194.953 C 240.128 192.312,237.984 190.028,235.445 188.281 L 234.400 187.563 234.410 164.681 C 234.416 149.858,234.570 141.166,234.847 140.000 C 235.083 139.010,235.439 135.140,235.640 131.400 C 235.841 127.660,236.165 122.620,236.362 120.200 C 236.558 117.780,236.907 113.504,237.137 110.698 C 237.367 107.892,237.677 105.398,237.827 105.156 C 238.094 104.725,238.366 102.330,239.175 93.278 C 239.398 90.791,239.687 88.583,239.818 88.372 C 240.051 87.994,240.502 84.590,241.165 78.200 C 241.640 73.625,242.407 69.529,242.963 68.600 C 244.357 66.270,245.340 60.912,244.782 58.693 C 243.538 53.753,239.604 51.546,230.000 50.400 C 228.350 50.203,225.740 49.859,224.200 49.634 C 221.107 49.183,221.144 49.184,217.933 49.596 M226.800 56.246 C 239.532 58.266,238.638 57.885,238.495 61.221 C 238.320 65.324,237.296 66.307,233.881 65.647 C 232.736 65.426,229.910 64.952,227.600 64.593 C 215.779 62.757,216.260 63.002,216.605 59.000 C 216.979 54.661,216.914 54.678,226.800 56.246 M144.681 74.078 C 147.041 76.366,146.674 77.359,142.100 81.045 C 139.955 82.774,138.110 84.287,138.000 84.408 C 135.927 86.683,134.447 86.819,132.629 84.900 C 130.414 82.563,130.244 82.836,138.009 76.255 C 138.563 75.785,139.695 74.815,140.523 74.100 C 142.401 72.477,143.026 72.474,144.681 74.078 M151.438 83.813 C 152.450 85.956,152.416 86.000,149.757 86.000 C 147.030 86.000,146.837 85.578,148.685 83.648 C 150.563 81.688,150.432 81.680,151.438 83.813 M117.862 199.131 C 117.498 199.534,117.200 200.299,117.200 200.832 C 117.200 201.365,116.836 203.691,116.392 206.001 C 114.976 213.363,114.720 215.702,115.291 216.065 C 115.571 216.242,119.327 216.391,123.638 216.394 C 132.841 216.401,132.494 216.561,133.198 212.000 C 133.453 210.350,133.818 208.100,134.010 207.000 C 135.685 197.374,136.565 198.400,126.635 198.400 C 119.285 198.400,118.462 198.469,117.862 199.131 M140.573 200.306 C 140.196 200.566,139.767 202.434,138.395 209.800 C 138.190 210.900,137.945 212.340,137.851 213.000 C 137.758 213.660,137.386 215.820,137.025 217.800 C 136.665 219.780,136.203 222.390,136.000 223.600 C 135.797 224.810,135.335 227.420,134.974 229.400 C 134.156 233.890,133.817 235.853,133.249 239.400 C 133.002 240.940,132.526 243.640,132.192 245.400 C 131.857 247.160,131.410 249.770,131.197 251.200 C 130.984 252.630,130.644 254.520,130.441 255.400 C 130.238 256.280,129.868 258.260,129.619 259.800 C 129.212 262.318,128.663 265.467,127.596 271.400 C 126.378 278.171,126.187 279.470,126.316 280.100 C 126.513 281.068,162.168 281.155,169.600 280.206 C 179.378 278.958,183.912 276.944,189.312 271.451 C 199.878 260.704,198.516 244.201,186.700 239.799 C 184.227 238.878,184.256 238.812,187.900 237.005 C 196.174 232.902,199.772 227.728,200.973 218.200 C 201.802 211.624,196.699 203.987,189.929 201.672 C 185.611 200.196,142.467 199.001,140.573 200.306 M177.120 215.364 C 183.205 218.543,181.242 228.445,174.022 230.992 C 172.158 231.650,154.242 231.915,153.856 231.290 C 153.751 231.120,153.931 229.455,154.257 227.590 C 155.417 220.959,155.559 220.173,156.022 217.800 C 156.280 216.480,156.571 215.265,156.669 215.100 C 157.022 214.505,175.943 214.750,177.120 215.364 M231.800 219.835 C 217.255 221.887,209.144 226.967,205.464 236.326 C 204.583 238.567,204.654 238.637,208.087 238.936 C 213.508 239.406,219.601 240.001,220.033 240.101 C 220.270 240.155,220.989 239.210,221.633 238.000 C 226.212 229.388,239.630 229.208,239.590 237.759 C 239.582 239.663,239.079 242.654,238.706 243.028 C 238.554 243.179,236.844 243.392,227.600 244.409 C 221.361 245.096,216.573 246.155,213.432 247.545 C 212.368 248.015,211.345 248.400,211.157 248.400 C 208.150 248.400,201.006 256.298,199.190 261.630 C 194.408 275.663,204.480 284.555,221.011 280.896 C 224.643 280.093,227.963 278.097,231.865 274.373 C 234.522 271.837,234.595 271.899,234.021 276.210 C 233.376 281.062,232.898 280.800,242.400 280.800 C 251.626 280.800,251.093 281.068,251.161 276.400 C 251.206 273.364,251.448 271.569,252.804 264.200 C 253.247 261.790,255.010 251.591,255.845 246.600 C 256.176 244.620,256.625 242.323,256.841 241.496 C 258.912 233.580,256.675 226.095,251.289 222.920 C 247.768 220.844,236.871 219.119,231.800 219.835 M291.800 219.965 C 288.283 220.846,285.153 223.103,282.598 226.600 C 281.001 228.787,279.185 230.442,280.219 228.769 C 280.480 228.346,281.202 223.964,281.333 222.000 L 281.400 221.000 273.418 221.000 L 265.436 221.000 264.906 223.600 C 264.614 225.030,264.202 227.280,263.989 228.600 C 263.776 229.920,263.332 232.440,263.003 234.200 C 262.673 235.960,262.229 238.480,262.017 239.800 C 261.804 241.120,261.455 243.190,261.241 244.400 C 261.027 245.610,260.588 248.130,260.265 250.000 C 259.942 251.870,259.376 255.020,259.007 257.000 C 258.325 260.656,257.783 263.791,257.207 267.400 C 257.031 268.500,256.566 271.110,256.173 273.200 C 255.780 275.290,255.445 277.810,255.429 278.800 L 255.400 280.600 263.482 280.708 C 273.235 280.839,271.956 282.166,273.995 269.800 C 274.719 265.415,275.232 262.515,275.588 260.800 C 275.793 259.810,276.165 257.920,276.413 256.600 C 278.785 243.988,283.322 238.456,291.961 237.642 L 294.523 237.400 295.025 235.200 C 295.853 231.580,297.340 222.702,297.371 221.200 L 297.400 219.800 295.200 219.732 C 293.990 219.695,292.460 219.800,291.800 219.965 M114.123 221.115 C 113.861 221.282,113.464 222.494,113.240 223.809 C 112.667 227.178,112.159 230.041,111.396 234.200 C 111.033 236.180,110.586 238.790,110.404 240.000 C 110.221 241.210,109.795 243.730,109.457 245.600 C 107.855 254.463,106.730 260.795,106.402 262.800 C 106.204 264.010,105.747 266.620,105.388 268.600 C 105.028 270.580,104.539 273.280,104.301 274.600 C 104.063 275.920,103.853 277.810,103.834 278.800 L 103.800 280.600 112.400 280.600 L 121.000 280.600 121.896 275.800 C 122.389 273.160,122.969 269.830,123.185 268.400 C 123.401 266.970,123.861 264.360,124.207 262.600 C 124.553 260.840,125.006 258.320,125.214 257.000 C 125.422 255.680,125.762 253.700,125.969 252.600 C 126.509 249.728,128.843 236.582,129.253 234.100 C 129.444 232.945,129.755 231.055,129.945 229.900 C 130.134 228.745,130.518 226.508,130.798 224.929 C 131.578 220.533,132.099 220.799,122.713 220.806 C 118.251 220.809,114.386 220.949,114.123 221.115 M171.133 247.017 C 180.101 249.680,178.399 261.587,168.621 264.593 C 166.635 265.203,164.750 265.331,157.221 265.362 L 148.200 265.400 148.218 263.600 C 148.237 261.720,150.318 249.361,151.030 246.900 C 151.261 246.103,168.391 246.203,171.133 247.017 M237.041 253.300 C 236.903 253.795,236.682 255.010,236.550 256.000 C 235.144 266.598,224.416 274.355,218.855 268.794 C 213.777 263.716,221.838 253.400,231.063 253.172 C 231.688 253.156,232.560 252.989,233.000 252.800 C 234.833 252.012,237.316 252.319,237.041 253.300 M194.334 277.100 C 194.298 277.265,194.237 278.930,194.199 280.800 C 194.116 284.923,193.247 287.129,190.589 289.971 C 187.707 293.052,186.166 293.561,174.800 295.188 C 173.150 295.424,169.979 295.884,167.752 296.209 C 156.042 297.919,150.605 295.439,148.185 287.284 L 147.439 284.768 144.620 284.884 L 141.800 285.000 141.927 286.800 C 142.349 292.810,146.208 298.319,152.128 301.364 L 154.392 302.529 154.163 304.764 C 154.037 305.994,153.749 307.990,153.523 309.200 C 151.289 321.136,151.687 330.527,154.660 336.027 C 157.093 340.527,165.204 346.775,169.384 347.368 C 170.053 347.463,172.490 347.833,174.800 348.190 C 177.110 348.548,180.170 348.999,181.600 349.193 C 183.030 349.387,185.550 349.765,187.200 350.033 C 206.656 353.192,216.731 351.616,222.859 344.456 C 225.344 341.553,228.391 334.400,228.406 331.434 C 228.410 330.755,228.673 329.120,228.992 327.800 C 229.311 326.480,229.578 324.739,229.586 323.931 C 229.594 323.122,229.770 321.592,229.978 320.531 C 230.557 317.578,231.374 311.968,232.356 304.200 C 232.578 302.440,233.040 299.200,233.382 297.000 C 233.723 294.800,234.190 291.402,234.419 289.449 C 234.647 287.495,234.872 285.696,234.917 285.451 C 234.966 285.189,234.086 284.898,232.800 284.750 C 231.590 284.610,230.210 284.367,229.734 284.210 C 228.927 283.944,228.849 284.087,228.614 286.262 C 228.476 287.548,228.190 289.355,227.981 290.277 C 227.771 291.200,227.600 292.581,227.600 293.347 C 227.600 294.112,227.430 295.608,227.223 296.669 C 227.015 297.731,226.558 300.760,226.207 303.400 C 225.856 306.040,225.404 309.190,225.202 310.400 C 225.001 311.610,224.744 313.410,224.631 314.400 C 224.519 315.390,224.146 318.000,223.804 320.200 C 223.461 322.400,223.005 325.640,222.789 327.400 C 221.142 340.859,212.699 347.803,200.685 345.582 C 199.441 345.352,197.113 344.998,195.512 344.797 C 192.884 344.465,189.257 343.960,181.000 342.776 C 179.460 342.556,176.850 342.216,175.200 342.022 C 163.239 340.616,156.575 331.890,158.407 320.033 C 159.086 315.638,159.543 312.377,160.009 308.600 C 160.254 306.620,160.583 304.460,160.741 303.800 L 161.028 302.600 166.214 302.360 C 171.931 302.096,177.530 301.357,184.800 299.907 C 195.283 297.815,203.257 286.798,198.077 281.563 C 196.963 280.437,195.761 278.905,195.407 278.158 C 194.771 276.818,194.463 276.514,194.334 277.100 " stroke="none" fill="#fbf5f5" fill-rule="evenodd"></path><path id="path1" d="M0.000 200.000 L 0.000 400.000 200.000 400.000 L 400.000 400.000 400.000 200.000 L 400.000 0.000 200.000 0.000 L 0.000 0.000 0.000 200.000 M224.200 49.634 C 225.740 49.859,228.350 50.203,230.000 50.400 C 239.604 51.546,243.538 53.753,244.782 58.693 C 245.340 60.912,244.357 66.270,242.963 68.600 C 242.407 69.529,241.640 73.625,241.165 78.200 C 240.502 84.590,240.051 87.994,239.818 88.372 C 239.687 88.583,239.398 90.791,239.175 93.278 C 238.366 102.330,238.094 104.725,237.827 105.156 C 237.677 105.398,237.367 107.892,237.137 110.698 C 236.907 113.504,236.558 117.780,236.362 120.200 C 236.165 122.620,235.841 127.660,235.640 131.400 C 235.439 135.140,235.083 139.010,234.847 140.000 C 234.570 141.166,234.416 149.858,234.410 164.681 L 234.400 187.563 235.445 188.281 C 237.984 190.028,240.128 192.312,241.706 194.953 C 245.026 200.508,245.200 201.208,245.200 209.060 L 245.200 215.600 243.260 215.600 C 240.164 215.600,238.676 214.925,238.959 213.648 C 240.913 204.832,237.150 195.676,230.291 192.557 C 229.421 192.161,228.691 191.505,228.566 191.007 C 228.138 189.300,228.645 135.885,229.142 130.400 C 230.336 117.229,230.849 112.038,232.028 101.200 C 232.611 95.850,234.093 84.021,235.011 77.400 C 236.216 68.711,236.784 69.636,229.600 68.587 C 227.070 68.217,223.491 67.664,221.648 67.357 C 215.499 66.335,215.995 65.978,215.197 72.000 C 214.611 76.429,213.218 85.750,212.388 90.800 C 212.190 92.010,211.750 94.710,211.411 96.800 C 211.072 98.890,210.620 101.590,210.406 102.800 C 210.193 104.010,209.739 106.620,209.397 108.600 C 209.056 110.580,208.601 113.100,208.388 114.200 C 207.214 120.242,205.538 128.552,205.000 131.000 C 204.661 132.540,204.274 134.340,204.140 135.000 C 203.799 136.673,200.847 147.983,200.433 149.200 C 200.246 149.750,199.893 150.920,199.648 151.800 C 199.029 154.029,195.275 167.139,194.839 168.600 C 194.076 171.150,192.287 177.490,190.577 183.699 C 190.069 185.543,189.751 186.047,188.972 186.243 C 187.829 186.530,187.776 187.156,188.608 190.600 C 188.927 191.920,189.190 193.675,189.194 194.500 L 189.200 196.000 186.239 196.000 L 183.278 196.000 182.839 194.740 C 182.598 194.047,182.400 192.838,182.400 192.054 C 182.400 187.255,178.063 181.528,173.275 180.005 C 171.416 179.413,171.033 178.944,170.448 176.552 C 170.240 175.698,169.765 173.920,169.392 172.600 C 169.019 171.280,168.569 169.660,168.392 169.000 C 168.214 168.340,167.786 166.810,167.440 165.600 C 167.095 164.390,166.457 162.140,166.024 160.600 C 165.590 159.060,164.943 156.810,164.586 155.600 C 164.229 154.390,163.788 152.770,163.606 152.000 C 163.424 151.230,162.927 149.340,162.502 147.800 C 162.076 146.260,161.526 144.100,161.280 143.000 C 161.034 141.900,160.571 139.830,160.250 138.400 C 159.930 136.970,159.457 134.630,159.199 133.200 C 158.940 131.770,158.488 129.340,158.194 127.800 C 157.635 124.879,157.263 122.752,156.200 116.400 C 155.850 114.310,155.398 111.610,155.196 110.400 C 154.993 109.190,154.544 106.130,154.197 103.600 C 153.850 101.070,153.394 98.131,153.183 97.069 C 152.972 96.008,152.800 94.407,152.800 93.512 L 152.800 91.884 150.300 92.164 C 148.925 92.318,146.720 92.617,145.400 92.829 C 144.080 93.041,141.951 93.324,140.668 93.458 C 137.872 93.749,137.736 93.988,138.336 97.537 C 139.063 101.835,140.432 112.839,141.380 122.000 C 142.037 128.350,142.563 134.209,143.195 142.200 C 143.661 148.095,143.744 182.776,143.294 183.421 C 143.132 183.653,142.338 184.245,141.528 184.736 C 138.852 186.362,136.470 189.766,135.815 192.900 C 135.574 194.052,130.056 194.661,129.405 193.607 C 128.481 192.114,132.267 184.424,135.447 181.333 L 137.200 179.630 137.190 159.915 C 137.185 147.712,137.024 139.590,136.769 138.600 C 136.542 137.720,136.193 134.750,135.994 132.000 C 135.353 123.158,134.835 117.981,134.547 117.514 C 134.392 117.264,134.127 115.336,133.958 113.229 C 133.378 106.017,132.853 101.210,132.602 100.803 C 132.463 100.578,132.357 98.539,132.367 96.271 L 132.384 92.147 130.802 91.449 C 128.707 90.525,126.522 87.906,125.791 85.445 C 124.520 81.167,125.642 78.307,130.000 74.712 C 130.990 73.896,132.700 72.412,133.800 71.416 C 140.924 64.961,145.741 64.943,150.706 71.354 C 151.471 72.342,151.601 73.004,151.606 75.954 C 151.613 80.079,151.888 80.736,153.124 79.585 C 153.606 79.136,154.000 78.602,154.000 78.399 C 154.000 78.196,155.040 76.898,156.312 75.515 C 157.583 74.132,159.046 72.370,159.563 71.600 C 160.843 69.692,163.485 67.600,164.615 67.600 C 166.878 67.600,167.614 70.700,165.762 72.430 C 165.191 72.964,164.446 73.940,164.106 74.600 C 163.766 75.260,163.294 75.925,163.056 76.078 C 161.981 76.770,163.396 76.852,165.491 76.221 C 169.198 75.104,169.546 75.073,170.599 75.763 C 173.205 77.470,171.706 80.161,167.413 81.483 C 164.472 82.389,164.472 83.211,167.413 84.117 C 171.706 85.439,173.205 88.130,170.599 89.837 C 169.468 90.578,169.601 90.599,162.800 88.595 C 156.674 86.789,155.600 86.574,155.600 87.155 C 155.600 87.400,155.765 87.600,155.966 87.600 C 157.223 87.600,159.139 92.313,159.625 96.600 C 160.253 102.137,160.752 105.835,161.137 107.800 C 161.352 108.900,161.741 111.150,162.000 112.800 C 162.259 114.450,162.651 116.700,162.870 117.800 C 163.090 118.900,163.432 120.880,163.631 122.200 C 163.830 123.520,164.169 125.500,164.384 126.600 C 164.600 127.700,165.035 130.040,165.351 131.800 C 166.106 136.002,167.787 143.633,168.568 146.400 C 168.909 147.610,169.551 149.950,169.994 151.600 C 170.438 153.250,170.960 155.050,171.154 155.600 C 171.348 156.150,171.697 157.320,171.929 158.200 C 172.162 159.080,172.802 161.330,173.352 163.200 C 173.902 165.070,174.654 167.892,175.023 169.472 C 175.924 173.327,176.617 174.331,179.635 176.161 C 181.046 177.016,182.778 178.259,183.485 178.922 L 184.771 180.129 185.240 178.964 C 185.704 177.811,186.781 174.161,188.593 167.600 C 189.109 165.730,190.005 162.580,190.585 160.600 C 191.164 158.620,191.888 156.100,192.193 155.000 C 192.498 153.900,193.403 150.750,194.204 148.000 C 196.869 138.847,200.945 121.343,201.887 115.000 C 201.985 114.340,202.436 111.910,202.888 109.600 C 203.341 107.290,203.851 104.410,204.021 103.200 C 204.192 101.990,204.625 99.290,204.985 97.200 C 205.344 95.110,205.806 92.301,206.009 90.959 C 206.213 89.616,206.472 88.266,206.584 87.959 C 206.773 87.439,207.268 83.828,208.004 77.600 C 208.633 72.278,209.551 66.567,209.942 65.546 C 210.164 64.964,210.245 63.162,210.121 61.526 C 209.603 54.682,212.475 50.297,217.933 49.596 C 221.144 49.184,221.107 49.183,224.200 49.634 M217.500 55.700 C 216.765 56.263,216.130 61.459,216.696 62.284 C 217.034 62.778,220.114 63.430,227.600 64.593 C 229.910 64.952,232.736 65.426,233.881 65.647 C 237.296 66.307,238.320 65.324,238.495 61.221 C 238.638 57.885,239.532 58.266,226.800 56.246 C 219.299 55.056,218.409 55.004,217.500 55.700 M140.523 74.100 C 139.695 74.815,138.563 75.785,138.009 76.255 C 130.244 82.836,130.414 82.563,132.629 84.900 C 134.447 86.819,135.927 86.683,138.000 84.408 C 138.110 84.287,139.955 82.774,142.100 81.045 C 146.674 77.359,147.041 76.366,144.681 74.078 C 143.026 72.474,142.401 72.477,140.523 74.100 M148.685 83.648 C 146.837 85.578,147.030 86.000,149.757 86.000 C 152.416 86.000,152.450 85.956,151.438 83.813 C 150.432 81.680,150.563 81.688,148.685 83.648 M134.988 199.162 C 135.121 199.581,135.034 201.066,134.794 202.462 C 134.554 203.858,134.201 205.900,134.010 207.000 C 133.818 208.100,133.453 210.350,133.198 212.000 C 132.494 216.561,132.841 216.401,123.638 216.394 C 119.327 216.391,115.571 216.242,115.291 216.065 C 114.720 215.702,114.976 213.363,116.392 206.001 C 116.836 203.691,117.200 201.365,117.200 200.832 C 117.200 198.548,117.773 198.400,126.635 198.400 C 134.260 198.400,134.761 198.446,134.988 199.162 M184.564 200.585 C 195.330 202.201,202.077 209.443,200.973 218.200 C 199.772 227.728,196.174 232.902,187.900 237.005 C 184.256 238.812,184.227 238.878,186.700 239.799 C 198.516 244.201,199.878 260.704,189.312 271.451 C 183.912 276.944,179.378 278.958,169.600 280.206 C 162.168 281.155,126.513 281.068,126.316 280.100 C 126.187 279.470,126.378 278.171,127.596 271.400 C 128.663 265.467,129.212 262.318,129.619 259.800 C 129.868 258.260,130.238 256.280,130.441 255.400 C 130.644 254.520,130.984 252.630,131.197 251.200 C 131.410 249.770,131.857 247.160,132.192 245.400 C 132.526 243.640,133.002 240.940,133.249 239.400 C 133.817 235.853,134.156 233.890,134.974 229.400 C 135.335 227.420,135.797 224.810,136.000 223.600 C 136.203 222.390,136.665 219.780,137.025 217.800 C 137.386 215.820,137.758 213.660,137.851 213.000 C 137.945 212.340,138.190 210.900,138.395 209.800 C 139.767 202.434,140.196 200.566,140.573 200.306 C 141.440 199.710,180.376 199.956,184.564 200.585 M156.669 215.100 C 156.571 215.265,156.280 216.480,156.022 217.800 C 155.559 220.173,155.417 220.959,154.257 227.590 C 153.931 229.455,153.751 231.120,153.856 231.290 C 154.242 231.915,172.158 231.650,174.022 230.992 C 181.242 228.445,183.205 218.543,177.120 215.364 C 175.943 214.750,157.022 214.505,156.669 215.100 M243.800 220.572 C 251.223 222.113,253.349 223.384,256.225 228.000 C 257.441 229.951,257.801 237.829,256.841 241.496 C 256.625 242.323,256.176 244.620,255.845 246.600 C 255.010 251.591,253.247 261.790,252.804 264.200 C 251.448 271.569,251.206 273.364,251.161 276.400 C 251.093 281.068,251.626 280.800,242.400 280.800 C 232.898 280.800,233.376 281.062,234.021 276.210 C 234.595 271.899,234.522 271.837,231.865 274.373 C 227.963 278.097,224.643 280.093,221.011 280.896 C 204.480 284.555,194.408 275.663,199.190 261.630 C 201.006 256.298,208.150 248.400,211.157 248.400 C 211.345 248.400,212.368 248.015,213.432 247.545 C 216.573 246.155,221.361 245.096,227.600 244.409 C 236.844 243.392,238.554 243.179,238.706 243.028 C 239.079 242.654,239.582 239.663,239.590 237.759 C 239.630 229.208,226.212 229.388,221.633 238.000 C 220.989 239.210,220.270 240.155,220.033 240.101 C 219.601 240.001,213.508 239.406,208.087 238.936 C 204.654 238.637,204.583 238.567,205.464 236.326 C 209.144 226.967,217.255 221.887,231.800 219.835 C 233.895 219.539,240.896 219.969,243.800 220.572 M297.371 221.200 C 297.340 222.702,295.853 231.580,295.025 235.200 L 294.523 237.400 291.961 237.642 C 283.322 238.456,278.785 243.988,276.413 256.600 C 276.165 257.920,275.793 259.810,275.588 260.800 C 275.232 262.515,274.719 265.415,273.995 269.800 C 271.956 282.166,273.235 280.839,263.482 280.708 L 255.400 280.600 255.429 278.800 C 255.445 277.810,255.780 275.290,256.173 273.200 C 256.566 271.110,257.031 268.500,257.207 267.400 C 257.783 263.791,258.325 260.656,259.007 257.000 C 259.376 255.020,259.942 251.870,260.265 250.000 C 260.588 248.130,261.027 245.610,261.241 244.400 C 261.455 243.190,261.804 241.120,262.017 239.800 C 262.229 238.480,262.673 235.960,263.003 234.200 C 263.332 232.440,263.776 229.920,263.989 228.600 C 264.202 227.280,264.614 225.030,264.906 223.600 L 265.436 221.000 273.418 221.000 L 281.400 221.000 281.333 222.000 C 281.202 223.964,280.480 228.346,280.219 228.769 C 279.185 230.442,281.001 228.787,282.598 226.600 C 286.080 221.833,290.216 219.579,295.200 219.732 L 297.400 219.800 297.371 221.200 M131.066 221.429 C 131.199 221.775,131.079 223.350,130.798 224.929 C 130.518 226.508,130.134 228.745,129.945 229.900 C 129.755 231.055,129.444 232.945,129.253 234.100 C 128.843 236.582,126.509 249.728,125.969 252.600 C 125.762 253.700,125.422 255.680,125.214 257.000 C 125.006 258.320,124.553 260.840,124.207 262.600 C 123.861 264.360,123.401 266.970,123.185 268.400 C 122.969 269.830,122.389 273.160,121.896 275.800 L 121.000 280.600 112.400 280.600 L 103.800 280.600 103.834 278.800 C 103.853 277.810,104.063 275.920,104.301 274.600 C 104.539 273.280,105.028 270.580,105.388 268.600 C 105.747 266.620,106.204 264.010,106.402 262.800 C 106.730 260.795,107.855 254.463,109.457 245.600 C 109.795 243.730,110.221 241.210,110.404 240.000 C 110.586 238.790,111.033 236.180,111.396 234.200 C 112.159 230.041,112.667 227.178,113.240 223.809 C 113.464 222.494,113.861 221.282,114.123 221.115 C 115.156 220.459,130.805 220.748,131.066 221.429 M151.030 246.900 C 150.318 249.361,148.237 261.720,148.218 263.600 L 148.200 265.400 157.221 265.362 C 164.750 265.331,166.635 265.203,168.621 264.593 C 178.399 261.587,180.101 249.680,171.133 247.017 C 168.391 246.203,151.261 246.103,151.030 246.900 M233.000 252.800 C 232.560 252.989,231.688 253.156,231.063 253.172 C 221.838 253.400,213.777 263.716,218.855 268.794 C 224.416 274.355,235.144 266.598,236.550 256.000 C 236.682 255.010,236.903 253.795,237.041 253.300 C 237.316 252.319,234.833 252.012,233.000 252.800 M195.407 278.158 C 195.761 278.905,196.963 280.437,198.077 281.563 C 203.257 286.798,195.283 297.815,184.800 299.907 C 177.530 301.357,171.931 302.096,166.214 302.360 L 161.028 302.600 160.741 303.800 C 160.583 304.460,160.254 306.620,160.009 308.600 C 159.543 312.377,159.086 315.638,158.407 320.033 C 156.575 331.890,163.239 340.616,175.200 342.022 C 176.850 342.216,179.460 342.556,181.000 342.776 C 189.257 343.960,192.884 344.465,195.512 344.797 C 197.113 344.998,199.441 345.352,200.685 345.582 C 212.699 347.803,221.142 340.859,222.789 327.400 C 223.005 325.640,223.461 322.400,223.804 320.200 C 224.146 318.000,224.519 315.390,224.631 314.400 C 224.744 313.410,225.001 311.610,225.202 310.400 C 225.404 309.190,225.856 306.040,226.207 303.400 C 226.558 300.760,227.015 297.731,227.223 296.669 C 227.430 295.608,227.600 294.112,227.600 293.347 C 227.600 292.581,227.771 291.200,227.981 290.277 C 228.190 289.355,228.476 287.548,228.614 286.262 C 228.849 284.087,228.927 283.944,229.734 284.210 C 230.210 284.367,231.590 284.610,232.800 284.750 C 234.086 284.898,234.966 285.189,234.917 285.451 C 234.872 285.696,234.647 287.495,234.419 289.449 C 234.190 291.402,233.723 294.800,233.382 297.000 C 233.040 299.200,232.578 302.440,232.356 304.200 C 231.374 311.968,230.557 317.578,229.978 320.531 C 229.770 321.592,229.594 323.122,229.586 323.931 C 229.578 324.739,229.311 326.480,228.992 327.800 C 228.673 329.120,228.410 330.755,228.406 331.434 C 228.391 334.400,225.344 341.553,222.859 344.456 C 216.731 351.616,206.656 353.192,187.200 350.033 C 185.550 349.765,183.030 349.387,181.600 349.193 C 180.170 348.999,177.110 348.548,174.800 348.190 C 172.490 347.833,170.053 347.463,169.384 347.368 C 165.204 346.775,157.093 340.527,154.660 336.027 C 151.687 330.527,151.289 321.136,153.523 309.200 C 153.749 307.990,154.037 305.994,154.163 304.764 L 154.392 302.529 152.128 301.364 C 146.208 298.319,142.349 292.810,141.927 286.800 L 141.800 285.000 144.620 284.884 L 147.439 284.768 148.185 287.284 C 150.605 295.439,156.042 297.919,167.752 296.209 C 169.979 295.884,173.150 295.424,174.800 295.188 C 186.166 293.561,187.707 293.052,190.589 289.971 C 193.247 287.129,194.116 284.923,194.199 280.800 C 194.295 276.085,194.358 275.948,195.407 278.158 " stroke="none" fill="#dc0404" fill-rule="evenodd"></path></g></svg>