<svg id="svg" xmlns="http://www.w3.org/2000/svg" xmlns:xlink="http://www.w3.org/1999/xlink" width="400" height="400" viewBox="0, 0, 400,400"><g id="svgg"><path id="path0" d="M219.350 53.076 C 216.728 53.590,214.962 59.685,216.474 63.002 C 216.859 63.848,216.830 64.244,216.317 65.121 C 215.517 66.491,215.110 68.591,213.591 79.200 C 210.436 101.228,204.961 130.764,202.215 140.562 C 201.508 143.087,198.653 153.135,193.965 169.600 C 189.582 184.996,190.100 183.770,187.633 184.589 L 185.611 185.261 182.705 182.304 C 180.774 180.338,179.034 178.991,177.515 178.286 C 175.350 177.280,175.197 177.113,174.625 175.112 C 164.854 140.941,162.130 128.691,158.410 102.200 C 156.429 88.092,157.049 88.657,145.699 90.611 C 137.506 92.021,137.155 92.369,137.994 98.271 C 138.239 99.992,138.603 102.750,138.804 104.400 C 139.005 106.050,139.438 109.560,139.767 112.200 C 140.095 114.840,140.640 119.790,140.977 123.200 C 142.681 140.450,142.800 143.019,142.800 162.426 L 142.800 181.749 140.257 184.217 C 136.169 188.187,133.846 194.000,136.348 194.000 C 137.375 194.000,137.624 193.813,137.815 192.900 C 138.470 189.766,140.852 186.362,143.528 184.736 C 144.338 184.245,145.105 183.690,145.234 183.504 C 145.624 182.941,145.281 143.793,144.836 138.000 C 144.439 132.837,143.570 123.838,142.809 117.000 C 142.613 115.240,142.264 112.037,142.035 109.882 C 141.805 107.727,141.445 104.847,141.234 103.482 C 141.023 102.117,140.635 99.616,140.373 97.925 C 139.769 94.037,139.932 93.600,141.982 93.600 C 142.865 93.600,144.356 93.422,145.294 93.205 C 147.898 92.602,154.162 91.704,154.500 91.886 C 154.665 91.975,154.800 92.844,154.800 93.818 C 154.800 94.792,154.972 96.356,155.182 97.294 C 155.392 98.232,155.861 101.160,156.224 103.800 C 156.790 107.909,157.640 113.292,158.594 118.800 C 158.728 119.570,159.017 121.280,159.237 122.600 C 160.226 128.536,162.475 139.987,163.205 142.800 C 163.404 143.570,163.829 145.280,164.147 146.600 C 164.753 149.107,165.513 151.884,166.613 155.600 C 166.971 156.810,167.417 158.430,167.605 159.200 C 167.937 160.559,168.112 161.180,169.357 165.400 C 169.917 167.296,170.823 170.510,171.670 173.600 C 171.881 174.370,172.190 175.630,172.357 176.400 C 172.851 178.681,173.454 179.425,175.275 180.001 C 178.726 181.091,182.660 184.809,183.317 187.600 C 183.447 188.150,183.736 189.320,183.960 190.200 C 184.184 191.080,184.510 192.700,184.684 193.800 C 184.972 195.622,185.103 195.812,186.160 195.932 L 187.319 196.065 187.043 193.932 C 186.892 192.760,186.663 190.888,186.535 189.773 L 186.303 187.746 188.052 187.111 C 189.013 186.762,190.260 186.374,190.823 186.250 C 191.865 186.019,192.105 185.473,193.660 179.800 C 193.901 178.920,194.324 177.390,194.600 176.400 C 194.876 175.410,195.326 173.790,195.600 172.800 C 196.623 169.103,197.136 167.306,198.167 163.800 C 198.749 161.820,199.421 159.480,199.659 158.600 C 199.898 157.720,200.238 156.550,200.414 156.000 C 200.591 155.450,201.016 154.010,201.358 152.800 C 201.700 151.590,202.440 148.980,203.002 147.000 C 204.546 141.562,205.057 139.517,206.597 132.600 C 206.940 131.060,207.381 129.080,207.578 128.200 C 207.774 127.320,208.144 125.520,208.400 124.200 C 208.656 122.880,209.023 121.080,209.216 120.200 C 209.629 118.311,210.480 113.691,211.387 108.400 C 211.746 106.310,212.210 103.700,212.418 102.600 C 212.734 100.931,213.561 95.797,214.995 86.600 C 215.133 85.720,215.515 83.290,215.845 81.200 C 216.383 77.790,216.645 75.910,217.541 69.000 C 217.858 66.550,218.126 66.477,223.555 67.345 C 225.670 67.684,229.380 68.254,231.800 68.612 C 237.694 69.485,238.088 69.661,237.837 71.300 C 237.728 72.015,237.350 74.760,236.997 77.400 C 236.644 80.040,236.195 83.370,235.999 84.800 C 234.993 92.152,234.347 97.724,233.007 110.600 C 231.803 122.168,231.614 124.232,231.393 128.200 C 231.270 130.400,231.004 134.090,230.802 136.400 C 230.367 141.380,230.280 190.800,230.706 191.446 C 230.868 191.692,231.720 192.259,232.600 192.708 C 234.879 193.869,238.021 197.146,239.260 199.654 C 241.190 203.562,241.290 204.092,241.141 209.639 C 241.017 214.289,241.081 214.964,241.689 215.347 C 242.808 216.053,243.264 215.162,243.627 211.562 C 244.474 203.165,241.851 196.820,235.402 191.658 L 232.726 189.517 232.921 162.458 C 233.067 142.252,233.278 133.627,233.754 128.400 C 234.104 124.550,234.569 119.420,234.788 117.000 C 235.703 106.849,238.284 85.332,240.016 73.400 C 240.240 71.860,240.312 70.048,240.176 69.373 C 239.982 68.407,240.154 67.878,240.989 66.887 C 243.115 64.359,243.532 59.331,241.787 57.257 C 240.470 55.693,239.682 55.469,230.362 54.019 C 222.834 52.848,221.216 52.710,219.350 53.076 M227.060 56.016 C 229.667 56.465,233.150 57.007,234.800 57.219 C 236.450 57.431,238.385 57.798,239.100 58.033 L 240.400 58.462 240.400 61.361 C 240.400 65.484,239.502 66.347,235.897 65.692 C 234.524 65.442,231.600 64.944,229.400 64.586 C 217.612 62.664,218.259 62.998,218.585 59.000 C 218.930 54.778,219.239 54.669,227.060 56.016 M160.043 75.780 C 157.593 78.959,155.411 81.670,155.194 81.804 C 154.838 82.024,154.605 84.400,154.940 84.400 C 155.193 84.400,166.164 87.632,167.914 88.222 C 170.575 89.119,171.600 89.000,171.600 87.791 C 171.600 86.620,171.441 86.539,165.682 84.773 C 160.195 83.090,160.224 83.037,168.000 80.592 C 171.929 79.357,172.796 78.759,172.017 77.820 C 171.295 76.951,170.754 77.019,165.792 78.597 C 160.874 80.161,160.800 80.175,160.800 79.554 C 160.800 79.177,163.319 75.422,163.989 74.800 C 166.178 72.768,167.020 70.000,165.449 70.000 C 164.696 70.000,163.566 71.208,160.043 75.780 M142.530 71.100 C 140.809 72.059,133.605 78.288,132.279 79.964 C 128.219 85.099,135.231 91.205,140.533 87.151 C 145.237 83.554,148.795 80.479,149.596 79.317 C 152.595 74.965,147.089 68.562,142.530 71.100 M146.681 74.078 C 149.041 76.366,148.674 77.359,144.100 81.045 C 141.955 82.774,140.110 84.290,140.000 84.414 C 138.038 86.621,136.135 86.791,134.500 84.907 C 132.639 82.763,132.770 82.456,137.151 78.662 C 139.324 76.780,141.349 74.999,141.651 74.704 C 143.892 72.513,144.932 72.384,146.681 74.078 M117.862 199.131 C 117.498 199.534,117.200 200.299,117.200 200.832 C 117.200 201.365,116.836 203.691,116.392 206.001 C 114.976 213.363,114.720 215.702,115.291 216.065 C 115.571 216.242,119.327 216.391,123.638 216.394 C 132.841 216.401,132.493 216.561,133.200 212.000 C 133.456 210.350,133.808 208.190,133.981 207.200 C 135.002 201.368,135.245 199.494,135.047 198.978 C 134.670 197.996,118.761 198.138,117.862 199.131 M140.573 200.306 C 140.137 200.607,139.157 205.231,137.627 214.200 C 136.632 220.040,135.688 225.414,134.395 232.600 C 134.197 233.700,133.856 235.680,133.637 237.000 C 133.418 238.320,132.950 241.020,132.597 243.000 C 132.244 244.980,131.796 247.500,131.600 248.600 C 131.404 249.700,130.956 252.220,130.603 254.200 C 130.250 256.180,129.799 258.790,129.600 260.000 C 129.401 261.210,128.950 263.820,128.597 265.800 C 128.244 267.780,127.797 270.300,127.603 271.400 C 127.409 272.500,126.993 274.733,126.679 276.362 C 125.726 281.297,123.592 280.800,145.747 280.797 C 172.808 280.792,178.325 279.965,185.600 274.817 C 199.490 264.989,200.124 244.800,186.700 239.799 C 184.219 238.875,184.264 238.767,187.836 237.047 C 196.070 233.084,199.765 227.783,200.973 218.200 C 201.802 211.624,196.699 203.987,189.929 201.672 C 185.611 200.196,142.467 199.001,140.573 200.306 M177.120 215.364 C 183.205 218.543,181.242 228.445,174.022 230.992 C 172.176 231.644,154.238 231.918,153.867 231.300 C 153.707 231.033,153.921 229.575,155.205 222.200 C 155.844 218.534,156.489 215.403,156.669 215.100 C 157.022 214.505,175.943 214.750,177.120 215.364 M231.800 219.835 C 217.572 221.843,210.506 226.054,205.948 235.242 C 204.382 238.397,204.513 238.626,208.064 238.934 C 213.483 239.404,219.600 240.000,220.033 240.101 C 220.270 240.155,220.989 239.210,221.633 238.000 C 226.212 229.388,239.630 229.208,239.590 237.759 C 239.582 239.663,239.079 242.654,238.706 243.028 C 238.554 243.179,237.209 243.347,227.600 244.412 C 211.294 246.219,202.656 251.454,199.190 261.630 C 194.380 275.747,204.379 284.529,221.104 280.878 C 224.046 280.236,227.685 278.145,230.961 275.215 C 234.705 271.865,234.619 271.838,234.002 276.186 C 233.312 281.050,232.859 280.800,242.369 280.800 C 251.673 280.800,251.200 281.034,251.200 276.420 C 251.200 274.539,251.478 271.470,251.818 269.600 C 252.158 267.730,252.601 265.300,252.804 264.200 C 253.006 263.100,253.631 259.500,254.192 256.200 C 254.753 252.900,255.390 249.390,255.607 248.400 C 258.868 233.562,257.706 226.703,251.289 222.920 C 247.768 220.844,236.871 219.119,231.800 219.835 M291.800 219.965 C 288.283 220.846,285.153 223.103,282.598 226.600 C 281.001 228.787,279.185 230.442,280.219 228.769 C 280.480 228.346,281.202 223.964,281.333 222.000 L 281.400 221.000 273.418 221.000 L 265.436 221.000 264.906 223.600 C 264.614 225.030,264.202 227.280,263.989 228.600 C 263.776 229.920,263.332 232.440,263.003 234.200 C 262.673 235.960,262.229 238.480,262.017 239.800 C 261.804 241.120,261.455 243.190,261.241 244.400 C 261.027 245.610,260.588 248.130,260.265 250.000 C 259.942 251.870,259.376 255.020,259.007 257.000 C 258.325 260.656,257.783 263.791,257.207 267.400 C 257.031 268.500,256.566 271.110,256.173 273.200 C 255.780 275.290,255.445 277.810,255.429 278.800 L 255.400 280.600 263.482 280.708 C 273.232 280.839,271.966 282.153,273.994 269.800 C 274.174 268.700,274.626 266.180,274.997 264.200 C 275.367 262.220,275.817 259.790,275.995 258.800 C 276.935 253.588,277.221 252.370,278.108 249.800 C 280.813 241.964,284.989 238.299,291.961 237.642 L 294.523 237.400 295.025 235.200 C 295.853 231.580,297.340 222.702,297.371 221.200 L 297.400 219.800 295.200 219.732 C 293.990 219.695,292.460 219.800,291.800 219.965 M114.123 221.115 C 113.861 221.282,113.464 222.494,113.240 223.809 C 112.667 227.178,112.159 230.041,111.396 234.200 C 111.033 236.180,110.586 238.790,110.404 240.000 C 110.221 241.210,109.792 243.730,109.451 245.600 C 109.110 247.470,108.657 249.990,108.444 251.200 C 108.231 252.410,107.762 255.020,107.402 257.000 C 107.042 258.980,106.588 261.590,106.394 262.800 C 106.200 264.010,105.747 266.620,105.388 268.600 C 105.028 270.580,104.539 273.280,104.301 274.600 C 104.063 275.920,103.853 277.810,103.834 278.800 L 103.800 280.600 112.400 280.600 L 121.000 280.600 121.896 275.800 C 122.389 273.160,122.969 269.830,123.185 268.400 C 123.401 266.970,123.861 264.360,124.207 262.600 C 124.553 260.840,125.006 258.320,125.214 257.000 C 125.422 255.680,125.762 253.700,125.969 252.600 C 126.509 249.728,128.843 236.582,129.253 234.100 C 129.444 232.945,129.756 231.055,129.947 229.900 C 130.138 228.745,130.529 226.526,130.816 224.970 C 131.633 220.549,132.120 220.799,122.713 220.806 C 118.251 220.809,114.386 220.949,114.123 221.115 M171.133 247.017 C 180.101 249.680,178.399 261.587,168.621 264.593 C 166.635 265.203,164.750 265.331,157.221 265.362 L 148.200 265.400 148.062 264.422 C 147.986 263.884,148.118 262.444,148.355 261.222 C 148.748 259.198,149.232 256.553,150.444 249.800 C 150.681 248.480,150.943 247.175,151.025 246.900 C 151.264 246.103,168.392 246.203,171.133 247.017 M237.041 253.300 C 236.903 253.795,236.682 255.010,236.550 256.000 C 235.260 265.727,226.290 273.123,219.963 269.675 C 217.131 268.133,216.404 263.247,218.528 260.037 C 220.496 257.063,227.420 253.258,231.020 253.172 C 231.669 253.156,232.560 252.989,233.000 252.800 C 234.833 252.012,237.316 252.319,237.041 253.300 M196.252 281.700 C 196.119 282.195,196.008 283.061,196.005 283.625 C 195.991 286.263,192.183 291.262,189.076 292.722 C 187.501 293.462,183.771 294.207,176.800 295.175 C 175.150 295.404,171.992 295.864,169.783 296.196 C 157.891 297.984,152.656 295.603,150.186 287.283 C 149.325 284.383,147.917 283.797,147.679 286.241 C 147.259 290.548,152.174 296.608,157.709 298.607 C 160.635 299.663,160.708 299.851,160.041 304.600 C 157.105 325.503,157.092 325.745,158.616 330.286 C 161.737 339.582,166.926 342.989,181.000 344.982 C 184.960 345.543,191.350 346.453,195.200 347.005 C 210.034 349.132,214.244 348.496,220.092 343.243 C 224.611 339.184,225.897 336.122,227.418 325.800 C 228.679 317.246,230.318 305.861,230.816 302.200 C 231.025 300.660,231.637 296.261,232.176 292.425 C 233.232 284.901,233.227 284.800,231.795 284.800 C 231.022 284.800,230.797 285.052,230.632 286.100 C 230.220 288.732,228.768 298.954,227.977 304.800 C 227.545 307.996,227.208 310.379,226.196 317.400 C 225.847 319.820,225.373 323.150,225.141 324.800 C 223.589 335.863,221.887 339.481,216.635 342.875 C 212.320 345.664,207.836 346.534,202.685 345.582 C 201.441 345.352,199.113 344.998,197.512 344.797 C 194.884 344.465,191.257 343.960,183.000 342.776 C 181.460 342.556,178.850 342.211,177.200 342.011 C 162.980 340.284,158.328 332.061,161.242 313.800 C 161.453 312.480,161.969 308.897,162.390 305.837 C 163.339 298.926,162.405 299.567,173.800 298.020 C 192.070 295.539,196.877 292.828,198.274 284.222 C 198.640 281.964,196.797 279.665,196.252 281.700 " stroke="none" fill="#ffffff" fill-rule="evenodd"></path><path id="path1" d="M0.000 200.000 L 0.000 400.000 200.000 400.000 L 400.000 400.000 400.000 200.000 L 400.000 0.000 200.000 0.000 L 0.000 0.000 0.000 200.000 M230.362 54.019 C 239.682 55.469,240.470 55.693,241.787 57.257 C 243.532 59.331,243.115 64.359,240.989 66.887 C 240.154 67.878,239.982 68.407,240.176 69.373 C 240.312 70.048,240.240 71.860,240.016 73.400 C 238.284 85.332,235.703 106.849,234.788 117.000 C 234.569 119.420,234.104 124.550,233.754 128.400 C 233.278 133.627,233.067 142.252,232.921 162.458 L 232.726 189.517 235.402 191.658 C 241.851 196.820,244.474 203.165,243.627 211.562 C 243.264 215.162,242.808 216.053,241.689 215.347 C 241.081 214.964,241.017 214.289,241.141 209.639 C 241.290 204.092,241.190 203.562,239.260 199.654 C 238.021 197.146,234.879 193.869,232.600 192.708 C 231.720 192.259,230.868 191.692,230.706 191.446 C 230.280 190.800,230.367 141.380,230.802 136.400 C 231.004 134.090,231.270 130.400,231.393 128.200 C 231.614 124.232,231.803 122.168,233.007 110.600 C 234.347 97.724,234.993 92.152,235.999 84.800 C 236.195 83.370,236.644 80.040,236.997 77.400 C 237.350 74.760,237.728 72.015,237.837 71.300 C 238.088 69.661,237.694 69.485,231.800 68.612 C 229.380 68.254,225.670 67.684,223.555 67.345 C 218.126 66.477,217.858 66.550,217.541 69.000 C 216.645 75.910,216.383 77.790,215.845 81.200 C 215.515 83.290,215.133 85.720,214.995 86.600 C 213.561 95.797,212.734 100.931,212.418 102.600 C 212.210 103.700,211.746 106.310,211.387 108.400 C 210.480 113.691,209.629 118.311,209.216 120.200 C 209.023 121.080,208.656 122.880,208.400 124.200 C 208.144 125.520,207.774 127.320,207.578 128.200 C 207.381 129.080,206.940 131.060,206.597 132.600 C 205.057 139.517,204.546 141.562,203.002 147.000 C 202.440 148.980,201.700 151.590,201.358 152.800 C 201.016 154.010,200.591 155.450,200.414 156.000 C 200.238 156.550,199.898 157.720,199.659 158.600 C 199.421 159.480,198.749 161.820,198.167 163.800 C 197.136 167.306,196.623 169.103,195.600 172.800 C 195.326 173.790,194.876 175.410,194.600 176.400 C 194.324 177.390,193.901 178.920,193.660 179.800 C 192.105 185.473,191.865 186.019,190.823 186.250 C 190.260 186.374,189.013 186.762,188.052 187.111 L 186.303 187.746 186.535 189.773 C 186.663 190.888,186.892 192.760,187.043 193.932 L 187.319 196.065 186.160 195.932 C 185.103 195.812,184.972 195.622,184.684 193.800 C 184.510 192.700,184.184 191.080,183.960 190.200 C 183.736 189.320,183.447 188.150,183.317 187.600 C 182.660 184.809,178.726 181.091,175.275 180.001 C 173.454 179.425,172.851 178.681,172.357 176.400 C 172.190 175.630,171.881 174.370,171.670 173.600 C 170.823 170.510,169.917 167.296,169.357 165.400 C 168.112 161.180,167.937 160.559,167.605 159.200 C 167.417 158.430,166.971 156.810,166.613 155.600 C 165.513 151.884,164.753 149.107,164.147 146.600 C 163.829 145.280,163.404 143.570,163.205 142.800 C 162.475 139.987,160.226 128.536,159.237 122.600 C 159.017 121.280,158.728 119.570,158.594 118.800 C 157.640 113.292,156.790 107.909,156.224 103.800 C 155.861 101.160,155.392 98.232,155.182 97.294 C 154.972 96.356,154.800 94.792,154.800 93.818 C 154.800 92.844,154.665 91.975,154.500 91.886 C 154.162 91.704,147.898 92.602,145.294 93.205 C 144.356 93.422,142.865 93.600,141.982 93.600 C 139.932 93.600,139.769 94.037,140.373 97.925 C 140.635 99.616,141.023 102.117,141.234 103.482 C 141.445 104.847,141.805 107.727,142.035 109.882 C 142.264 112.037,142.613 115.240,142.809 117.000 C 143.570 123.838,144.439 132.837,144.836 138.000 C 145.281 143.793,145.624 182.941,145.234 183.504 C 145.105 183.690,144.338 184.245,143.528 184.736 C 140.852 186.362,138.470 189.766,137.815 192.900 C 137.624 193.813,137.375 194.000,136.348 194.000 C 133.846 194.000,136.169 188.187,140.257 184.217 L 142.800 181.749 142.800 162.426 C 142.800 143.019,142.681 140.450,140.977 123.200 C 140.640 119.790,140.095 114.840,139.767 112.200 C 139.438 109.560,139.005 106.050,138.804 104.400 C 138.603 102.750,138.239 99.992,137.994 98.271 C 137.155 92.369,137.506 92.021,145.699 90.611 C 157.049 88.657,156.429 88.092,158.410 102.200 C 162.130 128.691,164.854 140.941,174.625 175.112 C 175.197 177.113,175.350 177.280,177.515 178.286 C 179.034 178.991,180.774 180.338,182.705 182.304 L 185.611 185.261 187.633 184.589 C 190.100 183.770,189.582 184.996,193.965 169.600 C 198.653 153.135,201.508 143.087,202.215 140.562 C 204.961 130.764,210.436 101.228,213.591 79.200 C 215.110 68.591,215.517 66.491,216.317 65.121 C 216.830 64.244,216.859 63.848,216.474 63.002 C 215.421 60.692,216.084 55.915,217.705 54.121 C 219.160 52.512,220.600 52.501,230.362 54.019 M219.483 55.700 C 218.732 56.261,218.109 61.443,218.692 62.284 C 219.023 62.762,221.569 63.309,229.400 64.586 C 231.600 64.944,234.524 65.442,235.897 65.692 C 239.502 66.347,240.400 65.484,240.400 61.361 L 240.400 58.462 239.100 58.033 C 238.385 57.798,236.450 57.431,234.800 57.219 C 233.150 57.007,229.667 56.465,227.060 56.016 C 221.545 55.066,220.396 55.018,219.483 55.700 M166.400 70.827 C 166.400 71.499,164.923 73.934,163.989 74.800 C 163.319 75.422,160.800 79.177,160.800 79.554 C 160.800 80.175,160.874 80.161,165.792 78.597 C 170.754 77.019,171.295 76.951,172.017 77.820 C 172.796 78.759,171.929 79.357,168.000 80.592 C 160.224 83.037,160.195 83.090,165.682 84.773 C 171.441 86.539,171.600 86.620,171.600 87.791 C 171.600 89.000,170.575 89.119,167.914 88.222 C 166.164 87.632,155.193 84.400,154.940 84.400 C 154.605 84.400,154.838 82.024,155.194 81.804 C 155.411 81.670,157.593 78.959,160.043 75.780 C 164.571 69.905,166.400 68.479,166.400 70.827 M146.526 70.850 C 152.159 73.751,151.799 78.095,145.505 83.200 C 137.303 89.853,136.408 90.122,133.195 86.910 C 129.528 83.242,130.210 81.305,137.316 75.200 C 142.882 70.418,144.345 69.727,146.526 70.850 M143.189 73.484 C 142.645 73.860,141.953 74.409,141.651 74.704 C 141.349 74.999,139.324 76.780,137.151 78.662 C 132.770 82.456,132.639 82.763,134.500 84.907 C 136.135 86.791,138.038 86.621,140.000 84.414 C 140.110 84.290,141.955 82.774,144.100 81.045 C 148.674 77.359,149.041 76.366,146.681 74.078 C 145.178 72.621,144.583 72.520,143.189 73.484 M135.047 198.978 C 135.245 199.494,135.002 201.368,133.981 207.200 C 133.808 208.190,133.456 210.350,133.200 212.000 C 132.493 216.561,132.841 216.401,123.638 216.394 C 119.327 216.391,115.571 216.242,115.291 216.065 C 114.720 215.702,114.976 213.363,116.392 206.001 C 116.836 203.691,117.200 201.365,117.200 200.832 C 117.200 198.546,117.769 198.400,126.675 198.400 C 133.411 198.400,134.864 198.500,135.047 198.978 M184.564 200.585 C 195.330 202.201,202.077 209.443,200.973 218.200 C 199.765 227.783,196.070 233.084,187.836 237.047 C 184.264 238.767,184.219 238.875,186.700 239.799 C 200.124 244.800,199.490 264.989,185.600 274.817 C 178.325 279.965,172.808 280.792,145.747 280.797 C 123.592 280.800,125.726 281.297,126.679 276.362 C 126.993 274.733,127.409 272.500,127.603 271.400 C 127.797 270.300,128.244 267.780,128.597 265.800 C 128.950 263.820,129.401 261.210,129.600 260.000 C 129.799 258.790,130.250 256.180,130.603 254.200 C 130.956 252.220,131.404 249.700,131.600 248.600 C 131.796 247.500,132.244 244.980,132.597 243.000 C 132.950 241.020,133.418 238.320,133.637 237.000 C 133.856 235.680,134.197 233.700,134.395 232.600 C 135.688 225.414,136.632 220.040,137.627 214.200 C 139.157 205.231,140.137 200.607,140.573 200.306 C 141.440 199.710,180.376 199.956,184.564 200.585 M156.669 215.100 C 156.489 215.403,155.844 218.534,155.205 222.200 C 153.921 229.575,153.707 231.033,153.867 231.300 C 154.238 231.918,172.176 231.644,174.022 230.992 C 181.242 228.445,183.205 218.543,177.120 215.364 C 175.943 214.750,157.022 214.505,156.669 215.100 M243.800 220.572 C 251.137 222.095,253.395 223.424,256.088 227.800 C 257.882 230.715,257.691 238.920,255.607 248.400 C 255.390 249.390,254.753 252.900,254.192 256.200 C 253.631 259.500,253.006 263.100,252.804 264.200 C 252.601 265.300,252.158 267.730,251.818 269.600 C 251.478 271.470,251.200 274.539,251.200 276.420 C 251.200 281.034,251.673 280.800,242.369 280.800 C 232.859 280.800,233.312 281.050,234.002 276.186 C 234.619 271.838,234.705 271.865,230.961 275.215 C 227.685 278.145,224.046 280.236,221.104 280.878 C 204.379 284.529,194.380 275.747,199.190 261.630 C 202.656 251.454,211.294 246.219,227.600 244.412 C 237.209 243.347,238.554 243.179,238.706 243.028 C 239.079 242.654,239.582 239.663,239.590 237.759 C 239.630 229.208,226.212 229.388,221.633 238.000 C 220.989 239.210,220.270 240.155,220.033 240.101 C 219.600 240.000,213.483 239.404,208.064 238.934 C 204.513 238.626,204.382 238.397,205.948 235.242 C 210.506 226.054,217.572 221.843,231.800 219.835 C 233.895 219.539,240.896 219.969,243.800 220.572 M297.371 221.200 C 297.340 222.702,295.853 231.580,295.025 235.200 L 294.523 237.400 291.961 237.642 C 284.989 238.299,280.813 241.964,278.108 249.800 C 277.221 252.370,276.935 253.588,275.995 258.800 C 275.817 259.790,275.367 262.220,274.997 264.200 C 274.626 266.180,274.174 268.700,273.994 269.800 C 271.966 282.153,273.232 280.839,263.482 280.708 L 255.400 280.600 255.429 278.800 C 255.445 277.810,255.780 275.290,256.173 273.200 C 256.566 271.110,257.031 268.500,257.207 267.400 C 257.783 263.791,258.325 260.656,259.007 257.000 C 259.376 255.020,259.942 251.870,260.265 250.000 C 260.588 248.130,261.027 245.610,261.241 244.400 C 261.455 243.190,261.804 241.120,262.017 239.800 C 262.229 238.480,262.673 235.960,263.003 234.200 C 263.332 232.440,263.776 229.920,263.989 228.600 C 264.202 227.280,264.614 225.030,264.906 223.600 L 265.436 221.000 273.418 221.000 L 281.400 221.000 281.333 222.000 C 281.202 223.964,280.480 228.346,280.219 228.769 C 279.185 230.442,281.001 228.787,282.598 226.600 C 286.080 221.833,290.216 219.579,295.200 219.732 L 297.400 219.800 297.371 221.200 M131.082 221.470 C 131.223 221.838,131.104 223.413,130.816 224.970 C 130.529 226.526,130.138 228.745,129.947 229.900 C 129.756 231.055,129.444 232.945,129.253 234.100 C 128.843 236.582,126.509 249.728,125.969 252.600 C 125.762 253.700,125.422 255.680,125.214 257.000 C 125.006 258.320,124.553 260.840,124.207 262.600 C 123.861 264.360,123.401 266.970,123.185 268.400 C 122.969 269.830,122.389 273.160,121.896 275.800 L 121.000 280.600 112.400 280.600 L 103.800 280.600 103.834 278.800 C 103.853 277.810,104.063 275.920,104.301 274.600 C 104.539 273.280,105.028 270.580,105.388 268.600 C 105.747 266.620,106.200 264.010,106.394 262.800 C 106.588 261.590,107.042 258.980,107.402 257.000 C 107.762 255.020,108.231 252.410,108.444 251.200 C 108.657 249.990,109.110 247.470,109.451 245.600 C 109.792 243.730,110.221 241.210,110.404 240.000 C 110.586 238.790,111.033 236.180,111.396 234.200 C 112.159 230.041,112.667 227.178,113.240 223.809 C 113.464 222.494,113.861 221.282,114.123 221.115 C 115.207 220.426,130.807 220.752,131.082 221.470 M151.025 246.900 C 150.943 247.175,150.681 248.480,150.444 249.800 C 149.232 256.553,148.748 259.198,148.355 261.222 C 148.118 262.444,147.986 263.884,148.062 264.422 L 148.200 265.400 157.221 265.362 C 164.750 265.331,166.635 265.203,168.621 264.593 C 178.399 261.587,180.101 249.680,171.133 247.017 C 168.392 246.203,151.264 246.103,151.025 246.900 M233.000 252.800 C 232.560 252.989,231.669 253.156,231.020 253.172 C 227.420 253.258,220.496 257.063,218.528 260.037 C 216.404 263.247,217.131 268.133,219.963 269.675 C 226.290 273.123,235.260 265.727,236.550 256.000 C 236.682 255.010,236.903 253.795,237.041 253.300 C 237.316 252.319,234.833 252.012,233.000 252.800 M197.842 281.808 C 199.766 284.744,195.572 291.979,190.439 294.580 C 187.743 295.946,185.205 296.471,173.800 298.020 C 162.405 299.567,163.339 298.926,162.390 305.837 C 161.969 308.897,161.453 312.480,161.242 313.800 C 158.328 332.061,162.980 340.284,177.200 342.011 C 178.850 342.211,181.460 342.556,183.000 342.776 C 191.257 343.960,194.884 344.465,197.512 344.797 C 199.113 344.998,201.441 345.352,202.685 345.582 C 207.836 346.534,212.320 345.664,216.635 342.875 C 221.887 339.481,223.589 335.863,225.141 324.800 C 225.373 323.150,225.847 319.820,226.196 317.400 C 227.208 310.379,227.545 307.996,227.977 304.800 C 228.768 298.954,230.220 288.732,230.632 286.100 C 230.797 285.052,231.022 284.800,231.795 284.800 C 233.227 284.800,233.232 284.901,232.176 292.425 C 231.637 296.261,231.025 300.660,230.816 302.200 C 226.141 336.569,225.717 338.191,220.092 343.243 C 214.244 348.496,210.034 349.132,195.200 347.005 C 191.350 346.453,184.960 345.543,181.000 344.982 C 161.099 342.163,155.780 335.024,158.596 314.913 C 159.143 311.001,159.794 306.360,160.041 304.600 C 160.708 299.851,160.635 299.663,157.709 298.607 C 152.174 296.608,147.259 290.548,147.679 286.241 C 147.917 283.797,149.325 284.383,150.186 287.283 C 152.656 295.603,157.891 297.984,169.783 296.196 C 171.992 295.864,175.150 295.404,176.800 295.175 C 183.771 294.207,187.501 293.462,189.076 292.722 C 192.183 291.262,195.991 286.263,196.005 283.625 C 196.020 280.895,196.763 280.161,197.842 281.808 " stroke="none" fill="#dc0404" fill-rule="evenodd"></path></g></svg>